<svg xmlns="http://www.w3.org/2000/svg" width="1024" height="1024" viewBox="0 0 1024 1024">
<rect x="1.505" y="1.505" width="1020.99" height="1020.99" rx="238.59" fill="#ffffff" stroke="#eae6df" stroke-width="3.01"></rect>
<g transform="translate(170.50,170.50) scale(7.76145) translate(-6,-9)" fill="#f0591f">
<path d="M25,37 L25,48 Q25,60 32.68,69.22 L45.52,84.62 Q50,90 54.48,84.62 L67.32,69.22 Q75,60 75,48 L75,37 Q75,30 68,30 L66,30 Q61,30 61,35 L61,48 Q61,57 55.44,64.08 L53.09,67.07 Q50,71 46.91,67.07 L44.56,64.08 Q39,57 39,48 L39,35 Q39,30 34,30 L32,30 Q25,30 25,37 Z"></path>
<path d="M50,16 L52.70,23.28 L60.46,23.60 L54.37,28.42 L56.47,35.90 L50,31.6 L43.53,35.90 L45.63,28.42 L39.54,23.60 L47.30,23.28 Z"></path>
</g>
</svg>